<svg width="139" height="139" viewBox="0 0 139 139" fill="none" xmlns="http://www.w3.org/2000/svg">
<path d="M43.321 102.091H44.8977L48.6051 111.146H48.733L52.4403 102.091H54.017V113H52.7812V104.712H52.6747L49.2656 113H48.0724L44.6634 104.712H44.5568V113H43.321V102.091ZM57.9868 102.091V113H56.6657V102.091H57.9868ZM64.002 113H60.6355V102.091H64.1511C65.2093 102.091 66.1149 102.309 66.8677 102.746C67.6206 103.179 68.1976 103.803 68.5989 104.616C69.0002 105.425 69.2008 106.395 69.2008 107.524C69.2008 108.661 68.9984 109.639 68.5936 110.459C68.1887 111.276 67.5993 111.904 66.8251 112.345C66.051 112.782 65.1099 113 64.002 113ZM61.9565 111.828H63.9167C64.8187 111.828 65.5662 111.654 66.1593 111.306C66.7523 110.958 67.1944 110.463 67.4856 109.82C67.7768 109.177 67.9224 108.412 67.9224 107.524C67.9224 106.643 67.7786 105.885 67.4909 105.25C67.2033 104.61 66.7736 104.12 66.2019 103.779C65.6301 103.435 64.9181 103.263 64.0659 103.263H61.9565V111.828ZM72.7377 102.091V113H71.4167V102.091H72.7377ZM75.8339 113H74.449L78.4546 102.091H79.8183L83.824 113H82.439L79.1791 103.817H79.0938L75.8339 113ZM76.3453 108.739H81.9276V109.911H76.3453V108.739ZM91.4891 104.818C91.4252 104.278 91.1659 103.859 90.7114 103.561C90.2568 103.263 89.6993 103.114 89.0388 103.114C88.5558 103.114 88.1333 103.192 87.771 103.348C87.4124 103.504 87.1318 103.719 86.9294 103.993C86.7306 104.266 86.6311 104.577 86.6311 104.925C86.6311 105.216 86.7004 105.466 86.8389 105.676C86.9809 105.882 87.162 106.054 87.3822 106.192C87.6024 106.327 87.8332 106.439 88.0747 106.528C88.3161 106.613 88.5381 106.683 88.7405 106.736L89.8485 107.034C90.1325 107.109 90.4486 107.212 90.7966 107.343C91.1482 107.474 91.4838 107.654 91.8034 107.881C92.1265 108.105 92.3928 108.392 92.6024 108.744C92.8119 109.096 92.9166 109.527 92.9166 110.038C92.9166 110.628 92.7622 111.161 92.4532 111.636C92.1478 112.112 91.7004 112.49 91.1109 112.771C90.5249 113.051 89.8129 113.192 88.9749 113.192C88.1936 113.192 87.5171 113.066 86.9454 112.814C86.3772 112.561 85.9298 112.21 85.6031 111.759C85.2799 111.308 85.097 110.784 85.0544 110.188H86.4181C86.4536 110.599 86.5921 110.94 86.8335 111.21C87.0786 111.477 87.3875 111.675 87.7604 111.807C88.1368 111.935 88.5416 111.999 88.9749 111.999C89.4791 111.999 89.9319 111.917 90.3332 111.754C90.7345 111.587 91.0523 111.356 91.2867 111.061C91.521 110.763 91.6382 110.415 91.6382 110.017C91.6382 109.655 91.537 109.36 91.3346 109.133C91.1322 108.906 90.8659 108.721 90.5356 108.579C90.2053 108.437 89.8485 108.312 89.4649 108.206L88.1226 107.822C87.2703 107.577 86.5956 107.228 86.0985 106.773C85.6013 106.319 85.3527 105.724 85.3527 104.989C85.3527 104.378 85.5178 103.845 85.8481 103.391C86.1819 102.933 86.6294 102.577 87.1904 102.325C87.7551 102.07 88.3854 101.942 89.0814 101.942C89.7845 101.942 90.4095 102.068 90.9564 102.32C91.5033 102.569 91.9365 102.909 92.2561 103.343C92.5793 103.776 92.7497 104.268 92.7675 104.818H91.4891Z" fill="#15BCBC"/>
<path d="M107.108 54.9522C108.677 54.9522 109.949 53.6802 109.949 52.1111C109.949 50.542 108.677 49.2699 107.108 49.2699C105.539 49.2699 104.267 50.542 104.267 52.1111C104.267 53.6802 105.539 54.9522 107.108 54.9522Z" fill="url(#paint0_linear_1710_89)"/>
<path d="M94.8953 49.9316C97.1922 49.9316 99.0542 48.0696 99.0542 45.7727C99.0542 43.4758 97.1922 41.6138 94.8953 41.6138C92.5984 41.6138 90.7365 43.4758 90.7365 45.7727C90.7365 48.0696 92.5984 49.9316 94.8953 49.9316Z" fill="url(#paint1_linear_1710_89)"/>
<path d="M70.4285 37.4021C72.6133 37.4021 74.3845 35.631 74.3845 33.4462C74.3845 31.2614 72.6133 29.4902 70.4285 29.4902C68.2437 29.4902 66.4726 31.2614 66.4726 33.4462C66.4726 35.631 68.2437 37.4021 70.4285 37.4021Z" fill="url(#paint2_linear_1710_89)"/>
<path d="M74.7931 26.549C76.4175 26.549 77.7343 25.2321 77.7343 23.6077C77.7343 21.9833 76.4175 20.6665 74.7931 20.6665C73.1687 20.6665 71.8519 21.9833 71.8519 23.6077C71.8519 25.2321 73.1687 26.549 74.7931 26.549Z" fill="url(#paint3_linear_1710_89)"/>
<path d="M89.3019 32.4899C90.8496 32.4899 92.1042 31.2353 92.1042 29.6876C92.1042 28.14 90.8496 26.8854 89.3019 26.8854C87.7543 26.8854 86.4997 28.14 86.4997 29.6876C86.4997 31.2353 87.7543 32.4899 89.3019 32.4899Z" fill="url(#paint4_linear_1710_89)"/>
<path d="M103.455 42.117C104.352 42.117 105.078 41.3901 105.078 40.4935C105.078 39.5968 104.352 38.87 103.455 38.87C102.558 38.87 101.831 39.5968 101.831 40.4935C101.831 41.3901 102.558 42.117 103.455 42.117Z" fill="url(#paint5_linear_1710_89)"/>
<path d="M111.531 43.7905C112.455 43.7905 113.204 43.0413 113.204 42.117C113.204 41.1927 112.455 40.4434 111.531 40.4434C110.607 40.4434 109.857 41.1927 109.857 42.117C109.857 43.0413 110.607 43.7905 111.531 43.7905Z" fill="url(#paint6_linear_1710_89)"/>
<path d="M110.355 24.995C111.35 24.995 112.156 24.1884 112.156 23.1935C112.156 22.1986 111.35 21.3921 110.355 21.3921C109.36 21.3921 108.553 22.1986 108.553 23.1935C108.553 24.1884 109.36 24.995 110.355 24.995Z" fill="url(#paint7_linear_1710_89)"/>
<path d="M95.9461 23.6105C96.9318 23.6105 97.7309 22.8115 97.7309 21.8258C97.7309 20.8401 96.9318 20.041 95.9461 20.041C94.9604 20.041 94.1614 20.8401 94.1614 21.8258C94.1614 22.8115 94.9604 23.6105 95.9461 23.6105Z" fill="url(#paint8_linear_1710_89)"/>
<path d="M86.8138 19.1097C87.7519 19.1097 88.5124 18.3492 88.5124 17.4111C88.5124 16.473 87.7519 15.7126 86.8138 15.7126C85.8757 15.7126 85.1152 16.473 85.1152 17.4111C85.1152 18.3492 85.8757 19.1097 86.8138 19.1097Z" fill="url(#paint9_linear_1710_89)"/>
<path d="M81.6736 47.6548C85.8513 47.6548 89.238 44.2681 89.238 40.0904C89.238 35.9127 85.8513 32.526 81.6736 32.526C77.4959 32.526 74.1093 35.9127 74.1093 40.0904C74.1093 44.2681 77.4959 47.6548 81.6736 47.6548Z" fill="url(#paint10_linear_1710_89)"/>
<path d="M58.7525 41.8918C61.4701 41.8918 63.6731 39.6888 63.6731 36.9712C63.6731 34.2537 61.4701 32.0506 58.7525 32.0506C56.0349 32.0506 53.8319 34.2537 53.8319 36.9712C53.8319 39.6888 56.0349 41.8918 58.7525 41.8918Z" fill="url(#paint11_linear_1710_89)"/>
<path d="M97.2778 62.5611C100.155 62.5611 102.487 60.2286 102.487 57.3514C102.487 54.4741 100.155 52.1417 97.2778 52.1417C94.4005 52.1417 92.0681 54.4741 92.0681 57.3514C92.0681 60.2286 94.4005 62.5611 97.2778 62.5611Z" fill="url(#paint12_linear_1710_89)"/>
<path d="M54.3462 39.3787C54.3462 39.3787 39.3287 46.4816 36.9962 63.7287C34.6638 80.9758 48.258 98.2257 67.4345 98.8346C86.6109 99.4434 102.134 80.7729 98.7873 62.0552C98.7873 62.0552 101.931 61.0655 102.39 58.3272C102.846 55.5889 101.045 52.7727 98.1284 52.4419C95.2122 52.1111 93.4858 55.233 88.896 52.542C88.896 52.542 84.9901 49.7759 87.6033 44.8053C87.6033 44.8053 90.6085 41.1273 88.8599 37.3215C87.1085 33.5157 82.124 31.3473 77.9012 33.9355C73.6783 36.5236 76.4556 40.4796 68.2379 40.2127C68.2379 40.2127 65.0047 39.7179 63.7482 36.026C62.4916 32.3342 59.0694 32.0951 57.0122 32.804C54.955 33.5185 52.7227 36.0288 54.3462 39.3787Z" fill="url(#paint13_linear_1710_89)"/>
<path d="M67.2176 98.3953C84.0512 98.3953 97.6975 84.749 97.6975 67.9154C97.6975 51.0818 84.0512 37.4355 67.2176 37.4355C50.384 37.4355 36.7377 51.0818 36.7377 67.9154C36.7377 84.749 50.384 98.3953 67.2176 98.3953Z" fill="url(#paint14_linear_1710_89)"/>
<path d="M68.1211 89.8301C80.4776 89.8301 90.4946 79.8132 90.4946 67.4567C90.4946 55.1002 80.4776 45.0833 68.1211 45.0833C55.7646 45.0833 45.7477 55.1002 45.7477 67.4567C45.7477 79.8132 55.7646 89.8301 68.1211 89.8301Z" fill="white"/>
<path d="M83.9893 88.7821C82.9997 88.7821 82.5048 88.2872 82.5048 87.2976V74.4095H54.4074V87.2976C54.4074 88.2872 53.9125 88.7821 52.9228 88.7821H52.3891C51.3994 88.7821 50.9046 88.2872 50.9046 87.2976V48.6889C50.9046 47.6992 51.3994 47.2044 52.3891 47.2044H52.9228C53.9125 47.2044 54.4074 47.6992 54.4074 48.6889V71.1402H82.502V48.6889C82.502 47.6992 82.9969 47.2044 83.9866 47.2044H84.5203C85.51 47.2044 86.0048 47.6992 86.0048 48.6889V87.2976C86.0048 88.2872 85.51 88.7821 84.5203 88.7821H83.9893V88.7821Z" fill="url(#paint15_linear_1710_89)"/>
<path d="M77.6611 118.967C77.6611 118.861 77.6375 118.763 77.5902 118.673C77.5456 118.58 77.4524 118.497 77.3107 118.422C77.1716 118.346 76.9617 118.279 76.6809 118.224C76.4447 118.173 76.2308 118.114 76.0392 118.045C75.8503 117.976 75.6889 117.892 75.555 117.794C75.4238 117.696 75.3228 117.581 75.2519 117.448C75.1811 117.316 75.1457 117.16 75.1457 116.983C75.1457 116.813 75.1824 116.653 75.2559 116.502C75.332 116.35 75.4383 116.217 75.5747 116.1C75.7138 115.983 75.8805 115.892 76.0747 115.825C76.2689 115.759 76.4854 115.726 76.7242 115.726C77.0654 115.726 77.3567 115.787 77.5981 115.909C77.8395 116.031 78.0245 116.194 78.1531 116.398C78.2817 116.6 78.346 116.824 78.346 117.07H77.6178C77.6178 116.951 77.5823 116.836 77.5115 116.724C77.4433 116.61 77.3422 116.516 77.2084 116.442C77.0772 116.368 76.9158 116.331 76.7242 116.331C76.5221 116.331 76.3581 116.362 76.2321 116.426C76.1088 116.487 76.0182 116.565 75.9605 116.661C75.9054 116.756 75.8778 116.857 75.8778 116.963C75.8778 117.042 75.891 117.114 75.9172 117.178C75.9461 117.239 75.9959 117.296 76.0668 117.349C76.1376 117.399 76.2374 117.447 76.366 117.492C76.4946 117.537 76.6586 117.582 76.858 117.627C77.2071 117.707 77.4944 117.802 77.7201 117.913C77.9458 118.025 78.1138 118.161 78.224 118.323C78.3342 118.485 78.3893 118.681 78.3893 118.912C78.3893 119.1 78.35 119.272 78.2712 119.429C78.1951 119.585 78.0836 119.72 77.9366 119.834C77.7923 119.946 77.6191 120.033 77.417 120.097C77.2176 120.158 76.9932 120.188 76.7439 120.188C76.3686 120.188 76.051 120.121 75.7912 119.985C75.5314 119.85 75.3346 119.675 75.2008 119.461C75.0669 119.246 75 119.019 75 118.78H75.7322C75.7427 118.982 75.8004 119.142 75.9054 119.262C76.0104 119.378 76.139 119.462 76.2912 119.512C76.4434 119.56 76.5943 119.584 76.7439 119.584C76.9433 119.584 77.11 119.557 77.2438 119.504C77.3803 119.451 77.4839 119.378 77.5548 119.286C77.6256 119.193 77.6611 119.087 77.6611 118.967Z" fill="#15BCBC"/>
<path d="M80.0741 114V120.109H79.3459V114H80.0741ZM79.9009 117.794L79.5978 117.782C79.6005 117.488 79.6438 117.216 79.7277 116.967C79.8117 116.715 79.9298 116.496 80.082 116.311C80.2342 116.125 80.4153 115.982 80.6253 115.881C80.8378 115.778 81.0727 115.726 81.3299 115.726C81.5398 115.726 81.7288 115.755 81.8967 115.814C82.0647 115.869 82.2077 115.959 82.3258 116.084C82.4465 116.209 82.5384 116.37 82.6014 116.569C82.6644 116.765 82.6959 117.005 82.6959 117.289V120.109H81.9637V117.281C81.9637 117.056 81.9309 116.875 81.8653 116.74C81.7996 116.602 81.7039 116.503 81.5779 116.442C81.4519 116.378 81.2971 116.346 81.1134 116.346C80.9323 116.346 80.767 116.385 80.6174 116.462C80.4704 116.539 80.3431 116.645 80.2355 116.78C80.1306 116.915 80.0479 117.07 79.9875 117.245C79.9298 117.418 79.9009 117.601 79.9009 117.794Z" fill="#15BCBC"/>
<path d="M83.5934 118.005V117.913C83.5934 117.603 83.638 117.316 83.7272 117.05C83.8164 116.783 83.945 116.551 84.113 116.354C84.281 116.156 84.4843 116.002 84.7232 115.893C84.962 115.782 85.2297 115.726 85.5262 115.726C85.8254 115.726 86.0944 115.782 86.3332 115.893C86.5746 116.002 86.7793 116.156 86.9473 116.354C87.1179 116.551 87.2478 116.783 87.337 117.05C87.4262 117.316 87.4708 117.603 87.4708 117.913V118.005C87.4708 118.315 87.4262 118.603 87.337 118.868C87.2478 119.133 87.1179 119.365 86.9473 119.564C86.7793 119.76 86.5759 119.914 86.3371 120.025C86.1009 120.134 85.8332 120.188 85.5341 120.188C85.2349 120.188 84.9659 120.134 84.7271 120.025C84.4883 119.914 84.2836 119.76 84.113 119.564C83.945 119.365 83.8164 119.133 83.7272 118.868C83.638 118.603 83.5934 118.315 83.5934 118.005ZM84.3216 117.913V118.005C84.3216 118.22 84.3466 118.422 84.3964 118.613C84.4463 118.802 84.5211 118.969 84.6208 119.115C84.7232 119.26 84.8504 119.376 85.0026 119.461C85.1549 119.543 85.332 119.584 85.5341 119.584C85.7335 119.584 85.908 119.543 86.0576 119.461C86.2098 119.376 86.3358 119.26 86.4355 119.115C86.5353 118.969 86.6101 118.802 86.6599 118.613C86.7124 118.422 86.7386 118.22 86.7386 118.005V117.913C86.7386 117.701 86.7124 117.501 86.6599 117.313C86.6101 117.122 86.5339 116.954 86.4316 116.808C86.3319 116.659 86.2059 116.543 86.0537 116.458C85.9041 116.373 85.7283 116.331 85.5262 116.331C85.3268 116.331 85.1509 116.373 84.9987 116.458C84.8491 116.543 84.7232 116.659 84.6208 116.808C84.5211 116.954 84.4463 117.122 84.3964 117.313C84.3466 117.501 84.3216 117.701 84.3216 117.913Z" fill="#15BCBC"/>
<path d="M89.1124 116.633V121.763H88.3802V115.806H89.0494L89.1124 116.633ZM91.9821 117.921V118.005C91.9821 118.318 91.9453 118.608 91.8718 118.876C91.7984 119.141 91.6908 119.372 91.549 119.568C91.41 119.764 91.2381 119.917 91.0334 120.025C90.8287 120.134 90.5938 120.188 90.3287 120.188C90.0584 120.188 89.8196 120.143 89.6123 120.053C89.405 119.963 89.2291 119.832 89.0848 119.659C88.9405 119.487 88.825 119.28 88.7384 119.039C88.6544 118.798 88.5967 118.526 88.5652 118.224V117.778C88.5967 117.46 88.6557 117.175 88.7423 116.923C88.8289 116.671 88.9431 116.456 89.0848 116.279C89.2291 116.099 89.4037 115.962 89.6084 115.869C89.813 115.774 90.0492 115.726 90.3169 115.726C90.5846 115.726 90.8221 115.779 91.0294 115.885C91.2368 115.989 91.4113 116.137 91.553 116.331C91.6947 116.524 91.801 116.756 91.8718 117.027C91.9453 117.294 91.9821 117.593 91.9821 117.921ZM91.2499 118.005V117.921C91.2499 117.707 91.2276 117.505 91.183 117.317C91.1383 117.126 91.0688 116.959 90.9743 116.816C90.8825 116.67 90.7644 116.556 90.62 116.474C90.4757 116.389 90.3038 116.346 90.1044 116.346C89.9206 116.346 89.7606 116.378 89.6241 116.442C89.4903 116.506 89.3761 116.592 89.2816 116.7C89.1871 116.806 89.1097 116.928 89.0494 117.066C88.9916 117.202 88.9483 117.342 88.9195 117.488V118.518C88.972 118.704 89.0454 118.879 89.1399 119.043C89.2344 119.205 89.3604 119.336 89.5178 119.437C89.6753 119.535 89.8734 119.584 90.1122 119.584C90.309 119.584 90.4783 119.543 90.62 119.461C90.7644 119.376 90.8825 119.26 90.9743 119.115C91.0688 118.969 91.1383 118.802 91.183 118.613C91.2276 118.422 91.2499 118.22 91.2499 118.005Z" fill="#15BCBC"/>
<defs>
<linearGradient id="paint0_linear_1710_89" x1="135.191" y1="8.42519" x2="69.4437" y2="110.7" gradientUnits="userSpaceOnUse">
<stop stop-color="#3EBEB1"/>
<stop offset="0.209" stop-color="#3FBBB1"/>
<stop offset="0.3803" stop-color="#3CB4B2"/>
<stop offset="0.5383" stop-color="#35ABB5"/>
<stop offset="0.6882" stop-color="#2C9DB7"/>
<stop offset="0.8325" stop-color="#228CB9"/>
<stop offset="0.9707" stop-color="#1877B9"/>
<stop offset="1" stop-color="#1372BA"/>
</linearGradient>
<linearGradient id="paint1_linear_1710_89" x1="125.188" y1="-1.34929" x2="59.4403" y2="100.925" gradientUnits="userSpaceOnUse">
<stop stop-color="#3EBEB1"/>
<stop offset="0.209" stop-color="#3FBBB1"/>
<stop offset="0.3803" stop-color="#3CB4B2"/>
<stop offset="0.5383" stop-color="#35ABB5"/>
<stop offset="0.6882" stop-color="#2C9DB7"/>
<stop offset="0.8325" stop-color="#228CB9"/>
<stop offset="0.9707" stop-color="#1877B9"/>
<stop offset="1" stop-color="#1372BA"/>
</linearGradient>
<linearGradient id="paint2_linear_1710_89" x1="100.954" y1="-14.037" x2="35.2062" y2="88.2374" gradientUnits="userSpaceOnUse">
<stop stop-color="#3EBEB1"/>
<stop offset="0.209" stop-color="#3FBBB1"/>
<stop offset="0.3803" stop-color="#3CB4B2"/>
<stop offset="0.5383" stop-color="#35ABB5"/>
<stop offset="0.6882" stop-color="#2C9DB7"/>
<stop offset="0.8325" stop-color="#228CB9"/>
<stop offset="0.9707" stop-color="#1877B9"/>
<stop offset="1" stop-color="#1372BA"/>
</linearGradient>
<linearGradient id="paint3_linear_1710_89" x1="99.3603" y1="-14.6091" x2="33.6125" y2="87.6652" gradientUnits="userSpaceOnUse">
<stop stop-color="#3EBEB1"/>
<stop offset="0.209" stop-color="#3FBBB1"/>
<stop offset="0.3803" stop-color="#3CB4B2"/>
<stop offset="0.5383" stop-color="#35ABB5"/>
<stop offset="0.6882" stop-color="#2C9DB7"/>
<stop offset="0.8325" stop-color="#228CB9"/>
<stop offset="0.9707" stop-color="#1877B9"/>
<stop offset="1" stop-color="#1372BA"/>
</linearGradient>
<linearGradient id="paint4_linear_1710_89" x1="112.392" y1="-6.23158" x2="46.6443" y2="96.0428" gradientUnits="userSpaceOnUse">
<stop stop-color="#3EBEB1"/>
<stop offset="0.209" stop-color="#3FBBB1"/>
<stop offset="0.3803" stop-color="#3CB4B2"/>
<stop offset="0.5383" stop-color="#35ABB5"/>
<stop offset="0.6882" stop-color="#2C9DB7"/>
<stop offset="0.8325" stop-color="#228CB9"/>
<stop offset="0.9707" stop-color="#1877B9"/>
<stop offset="1" stop-color="#1372BA"/>
</linearGradient>
<linearGradient id="paint5_linear_1710_89" x1="127.323" y1="3.36658" x2="61.5749" y2="105.641" gradientUnits="userSpaceOnUse">
<stop stop-color="#3EBEB1"/>
<stop offset="0.209" stop-color="#3FBBB1"/>
<stop offset="0.3803" stop-color="#3CB4B2"/>
<stop offset="0.5383" stop-color="#35ABB5"/>
<stop offset="0.6882" stop-color="#2C9DB7"/>
<stop offset="0.8325" stop-color="#228CB9"/>
<stop offset="0.9707" stop-color="#1877B9"/>
<stop offset="1" stop-color="#1372BA"/>
</linearGradient>
<linearGradient id="paint6_linear_1710_89" x1="133.774" y1="7.51418" x2="68.0265" y2="109.788" gradientUnits="userSpaceOnUse">
<stop stop-color="#3EBEB1"/>
<stop offset="0.209" stop-color="#3FBBB1"/>
<stop offset="0.3803" stop-color="#3CB4B2"/>
<stop offset="0.5383" stop-color="#35ABB5"/>
<stop offset="0.6882" stop-color="#2C9DB7"/>
<stop offset="0.8325" stop-color="#228CB9"/>
<stop offset="0.9707" stop-color="#1877B9"/>
<stop offset="1" stop-color="#1372BA"/>
</linearGradient>
<linearGradient id="paint7_linear_1710_89" x1="124.335" y1="1.44625" x2="58.5875" y2="103.721" gradientUnits="userSpaceOnUse">
<stop stop-color="#3EBEB1"/>
<stop offset="0.209" stop-color="#3FBBB1"/>
<stop offset="0.3803" stop-color="#3CB4B2"/>
<stop offset="0.5383" stop-color="#35ABB5"/>
<stop offset="0.6882" stop-color="#2C9DB7"/>
<stop offset="0.8325" stop-color="#228CB9"/>
<stop offset="0.9707" stop-color="#1877B9"/>
<stop offset="1" stop-color="#1372BA"/>
</linearGradient>
<linearGradient id="paint8_linear_1710_89" x1="113.518" y1="-5.50797" x2="47.7698" y2="96.7664" gradientUnits="userSpaceOnUse">
<stop stop-color="#3EBEB1"/>
<stop offset="0.209" stop-color="#3FBBB1"/>
<stop offset="0.3803" stop-color="#3CB4B2"/>
<stop offset="0.5383" stop-color="#35ABB5"/>
<stop offset="0.6882" stop-color="#2C9DB7"/>
<stop offset="0.8325" stop-color="#228CB9"/>
<stop offset="0.9707" stop-color="#1877B9"/>
<stop offset="1" stop-color="#1372BA"/>
</linearGradient>
<linearGradient id="paint9_linear_1710_89" x1="105.049" y1="-10.9523" x2="39.3009" y2="91.322" gradientUnits="userSpaceOnUse">
<stop stop-color="#3EBEB1"/>
<stop offset="0.209" stop-color="#3FBBB1"/>
<stop offset="0.3803" stop-color="#3CB4B2"/>
<stop offset="0.5383" stop-color="#35ABB5"/>
<stop offset="0.6882" stop-color="#2C9DB7"/>
<stop offset="0.8325" stop-color="#228CB9"/>
<stop offset="0.9707" stop-color="#1877B9"/>
<stop offset="1" stop-color="#1372BA"/>
</linearGradient>
<linearGradient id="paint10_linear_1710_89" x1="162.844" y1="-86.1745" x2="-129.845" y2="369.12" gradientUnits="userSpaceOnUse">
<stop stop-color="#3EBEB1"/>
<stop offset="0.209" stop-color="#3FBBB1"/>
<stop offset="0.3803" stop-color="#3CB4B2"/>
<stop offset="0.5383" stop-color="#35ABB5"/>
<stop offset="0.6882" stop-color="#2C9DB7"/>
<stop offset="0.8325" stop-color="#228CB9"/>
<stop offset="0.9707" stop-color="#1877B9"/>
<stop offset="1" stop-color="#1372BA"/>
</linearGradient>
<linearGradient id="paint11_linear_1710_89" x1="111.549" y1="-45.1595" x2="-78.8314" y2="250.988" gradientUnits="userSpaceOnUse">
<stop stop-color="#3EBEB1"/>
<stop offset="0.209" stop-color="#3FBBB1"/>
<stop offset="0.3803" stop-color="#3CB4B2"/>
<stop offset="0.5383" stop-color="#35ABB5"/>
<stop offset="0.6882" stop-color="#2C9DB7"/>
<stop offset="0.8325" stop-color="#228CB9"/>
<stop offset="0.9707" stop-color="#1877B9"/>
<stop offset="1" stop-color="#1372BA"/>
</linearGradient>
<linearGradient id="paint12_linear_1710_89" x1="153.18" y1="-29.6075" x2="-48.3925" y2="283.95" gradientUnits="userSpaceOnUse">
<stop stop-color="#3EBEB1"/>
<stop offset="0.209" stop-color="#3FBBB1"/>
<stop offset="0.3803" stop-color="#3CB4B2"/>
<stop offset="0.5383" stop-color="#35ABB5"/>
<stop offset="0.6882" stop-color="#2C9DB7"/>
<stop offset="0.8325" stop-color="#228CB9"/>
<stop offset="0.9707" stop-color="#1877B9"/>
<stop offset="1" stop-color="#1372BA"/>
</linearGradient>
<linearGradient id="paint13_linear_1710_89" x1="110.729" y1="7.27029" x2="50.46" y2="92.1945" gradientUnits="userSpaceOnUse">
<stop stop-color="#3EBEB1"/>
<stop offset="0.209" stop-color="#3FBBB1"/>
<stop offset="0.3803" stop-color="#3CB4B2"/>
<stop offset="0.5383" stop-color="#35ABB5"/>
<stop offset="0.6882" stop-color="#2C9DB7"/>
<stop offset="0.8325" stop-color="#228CB9"/>
<stop offset="0.9707" stop-color="#1877B9"/>
<stop offset="1" stop-color="#1372BA"/>
</linearGradient>
<linearGradient id="paint14_linear_1710_89" x1="109.083" y1="14.4207" x2="46.4747" y2="94.4205" gradientUnits="userSpaceOnUse">
<stop stop-color="#3EBEB1"/>
<stop offset="0.209" stop-color="#3FBBB1"/>
<stop offset="0.3803" stop-color="#3CB4B2"/>
<stop offset="0.5383" stop-color="#35ABB5"/>
<stop offset="0.6882" stop-color="#2C9DB7"/>
<stop offset="0.8325" stop-color="#228CB9"/>
<stop offset="0.9707" stop-color="#1877B9"/>
<stop offset="1" stop-color="#1372BA"/>
</linearGradient>
<linearGradient id="paint15_linear_1710_89" x1="105.093" y1="21.179" x2="50.3033" y2="91.1882" gradientUnits="userSpaceOnUse">
<stop stop-color="#3EBEB1"/>
<stop offset="0.209" stop-color="#3FBBB1"/>
<stop offset="0.3803" stop-color="#3CB4B2"/>
<stop offset="0.5383" stop-color="#35ABB5"/>
<stop offset="0.6882" stop-color="#2C9DB7"/>
<stop offset="0.8325" stop-color="#228CB9"/>
<stop offset="0.9707" stop-color="#1877B9"/>
<stop offset="1" stop-color="#1372BA"/>
</linearGradient>
</defs>
</svg>
