<svg width="271" height="271" viewBox="0 0 271 271" fill="none" xmlns="http://www.w3.org/2000/svg">
<path d="M75.8182 206.727H79.1818L87.0909 226.045H87.3636L95.2727 206.727H98.6364V230H96V212.318H95.7727L88.5 230H85.9545L78.6818 212.318H78.4545V230H75.8182V206.727ZM107.105 206.727V230H104.287V206.727H107.105ZM119.938 230H112.756V206.727H120.256C122.513 206.727 124.445 207.193 126.051 208.125C127.657 209.049 128.888 210.379 129.744 212.114C130.6 213.841 131.028 215.909 131.028 218.318C131.028 220.742 130.597 222.83 129.733 224.58C128.869 226.322 127.612 227.663 125.96 228.602C124.309 229.534 122.301 230 119.938 230ZM115.574 227.5H119.756C121.68 227.5 123.275 227.129 124.54 226.386C125.805 225.644 126.748 224.587 127.369 223.216C127.991 221.845 128.301 220.212 128.301 218.318C128.301 216.439 127.994 214.822 127.381 213.466C126.767 212.102 125.85 211.057 124.631 210.33C123.411 209.595 121.892 209.227 120.074 209.227H115.574V227.5ZM138.574 206.727V230H135.756V206.727H138.574ZM145.179 230H142.224L150.77 206.727H153.679L162.224 230H159.27L152.315 210.409H152.134L145.179 230ZM146.27 220.909H158.179V223.409H146.27V220.909ZM178.577 212.545C178.44 211.394 177.887 210.5 176.918 209.864C175.948 209.227 174.759 208.909 173.349 208.909C172.319 208.909 171.418 209.076 170.645 209.409C169.88 209.742 169.281 210.201 168.849 210.784C168.425 211.367 168.213 212.03 168.213 212.773C168.213 213.394 168.361 213.928 168.656 214.375C168.959 214.814 169.346 215.182 169.815 215.477C170.285 215.765 170.777 216.004 171.293 216.193C171.808 216.375 172.281 216.523 172.713 216.636L175.077 217.273C175.683 217.432 176.357 217.652 177.099 217.932C177.849 218.212 178.565 218.595 179.247 219.08C179.937 219.557 180.505 220.17 180.952 220.92C181.399 221.67 181.622 222.591 181.622 223.682C181.622 224.939 181.293 226.076 180.634 227.091C179.982 228.106 179.027 228.913 177.77 229.511C176.52 230.11 175.001 230.409 173.213 230.409C171.546 230.409 170.103 230.14 168.884 229.602C167.671 229.064 166.717 228.314 166.02 227.352C165.33 226.39 164.94 225.273 164.849 224H167.759C167.834 224.879 168.13 225.606 168.645 226.182C169.168 226.75 169.827 227.174 170.622 227.455C171.425 227.727 172.289 227.864 173.213 227.864C174.289 227.864 175.255 227.689 176.111 227.341C176.967 226.985 177.645 226.492 178.145 225.864C178.645 225.227 178.895 224.485 178.895 223.636C178.895 222.864 178.679 222.235 178.247 221.75C177.815 221.265 177.247 220.871 176.543 220.568C175.838 220.265 175.077 220 174.259 219.773L171.395 218.955C169.577 218.432 168.137 217.686 167.077 216.716C166.016 215.746 165.486 214.477 165.486 212.909C165.486 211.606 165.838 210.47 166.543 209.5C167.255 208.523 168.209 207.765 169.406 207.227C170.611 206.682 171.955 206.409 173.44 206.409C174.94 206.409 176.274 206.678 177.44 207.216C178.607 207.746 179.531 208.473 180.213 209.398C180.902 210.322 181.266 211.371 181.304 212.545H178.577Z" fill="#15BCBC"/>
<path d="M208.822 107.137C211.881 107.137 214.361 104.657 214.361 101.598C214.361 98.5387 211.881 96.0587 208.822 96.0587C205.763 96.0587 203.283 98.5387 203.283 101.598C203.283 104.657 205.763 107.137 208.822 107.137Z" fill="url(#paint0_linear_1710_130)"/>
<path d="M185.012 97.3486C189.49 97.3486 193.12 93.7184 193.12 89.2403C193.12 84.7622 189.49 81.132 185.012 81.132C180.534 81.132 176.903 84.7622 176.903 89.2403C176.903 93.7184 180.534 97.3486 185.012 97.3486Z" fill="url(#paint1_linear_1710_130)"/>
<path d="M137.31 72.9207C141.57 72.9207 145.023 69.4676 145.023 65.208C145.023 60.9484 141.57 57.4954 137.31 57.4954C133.051 57.4954 129.598 60.9484 129.598 65.208C129.598 69.4676 133.051 72.9207 137.31 72.9207Z" fill="url(#paint2_linear_1710_130)"/>
<path d="M145.82 51.761C148.987 51.761 151.554 49.1937 151.554 46.0267C151.554 42.8597 148.987 40.2923 145.82 40.2923C142.653 40.2923 140.085 42.8597 140.085 46.0267C140.085 49.1937 142.653 51.761 145.82 51.761Z" fill="url(#paint3_linear_1710_130)"/>
<path d="M174.107 63.3436C177.124 63.3436 179.57 60.8975 179.57 57.8802C179.57 54.8629 177.124 52.4168 174.107 52.4168C171.089 52.4168 168.643 54.8629 168.643 57.8802C168.643 60.8975 171.089 63.3436 174.107 63.3436Z" fill="url(#paint4_linear_1710_130)"/>
<path d="M201.7 82.113C203.448 82.113 204.865 80.6959 204.865 78.9477C204.865 77.1996 203.448 75.7824 201.7 75.7824C199.952 75.7824 198.535 77.1996 198.535 78.9477C198.535 80.6959 199.952 82.113 201.7 82.113Z" fill="url(#paint5_linear_1710_130)"/>
<path d="M217.445 85.3758C219.247 85.3758 220.708 83.915 220.708 82.113C220.708 80.311 219.247 78.8502 217.445 78.8502C215.643 78.8502 214.182 80.311 214.182 82.113C214.182 83.915 215.643 85.3758 217.445 85.3758Z" fill="url(#paint6_linear_1710_130)"/>
<path d="M215.152 48.7312C217.092 48.7312 218.664 47.1588 218.664 45.2191C218.664 43.2794 217.092 41.7069 215.152 41.7069C213.213 41.7069 211.64 43.2794 211.64 45.2191C211.64 47.1588 213.213 48.7312 215.152 48.7312Z" fill="url(#paint7_linear_1710_130)"/>
<path d="M187.06 46.0321C188.982 46.0321 190.54 44.4742 190.54 42.5524C190.54 40.6307 188.982 39.0728 187.06 39.0728C185.139 39.0728 183.581 40.6307 183.581 42.5524C183.581 44.4742 185.139 46.0321 187.06 46.0321Z" fill="url(#paint8_linear_1710_130)"/>
<path d="M169.256 37.2571C171.085 37.2571 172.567 35.7744 172.567 33.9455C172.567 32.1165 171.085 30.6339 169.256 30.6339C167.427 30.6339 165.944 32.1165 165.944 33.9455C165.944 35.7744 167.427 37.2571 169.256 37.2571Z" fill="url(#paint9_linear_1710_130)"/>
<path d="M159.234 92.9096C167.379 92.9096 173.982 86.3068 173.982 78.1618C173.982 70.0168 167.379 63.414 159.234 63.414C151.089 63.414 144.486 70.0168 144.486 78.1618C144.486 86.3068 151.089 92.9096 159.234 92.9096Z" fill="url(#paint10_linear_1710_130)"/>
<path d="M114.546 81.674C119.845 81.674 124.14 77.3789 124.14 72.0806C124.14 66.7823 119.845 62.4872 114.546 62.4872C109.248 62.4872 104.953 66.7823 104.953 72.0806C104.953 77.3789 109.248 81.674 114.546 81.674Z" fill="url(#paint11_linear_1710_130)"/>
<path d="M189.657 121.972C195.266 121.972 199.814 117.424 199.814 111.815C199.814 106.205 195.266 101.658 189.657 101.658C184.047 101.658 179.5 106.205 179.5 111.815C179.5 117.424 184.047 121.972 189.657 121.972Z" fill="url(#paint12_linear_1710_130)"/>
<path d="M105.956 76.7743C105.956 76.7743 76.6767 90.6224 72.1294 124.248C67.582 157.874 94.0858 191.505 131.473 192.692C168.86 193.879 199.125 157.478 192.6 120.985C192.6 120.985 198.73 119.056 199.624 113.717C200.513 108.378 197.001 102.888 191.315 102.243C185.63 101.598 182.264 107.685 173.315 102.438C173.315 102.438 165.7 97.0451 170.795 87.3541C170.795 87.3541 176.654 80.1835 173.245 72.7635C169.83 65.3435 160.112 61.1159 151.879 66.1619C143.646 71.208 149.061 78.9206 133.039 78.4003C133.039 78.4003 126.736 77.4355 124.286 70.2378C121.836 63.04 115.164 62.5739 111.153 63.956C107.143 65.3489 102.79 70.2432 105.956 76.7743Z" fill="url(#paint13_linear_1710_130)"/>
<path d="M131.05 191.835C163.87 191.835 190.475 165.23 190.475 132.411C190.475 99.5911 163.87 72.9857 131.05 72.9857C98.2307 72.9857 71.6253 99.5911 71.6253 132.411C71.6253 165.23 98.2307 191.835 131.05 191.835Z" fill="url(#paint14_linear_1710_130)"/>
<path d="M132.812 175.136C156.902 175.136 176.432 155.607 176.432 131.516C176.432 107.426 156.902 87.8961 132.812 87.8961C108.721 87.8961 89.1915 107.426 89.1915 131.516C89.1915 155.607 108.721 175.136 132.812 175.136Z" fill="white"/>
<path d="M163.749 173.093C161.82 173.093 160.855 172.128 160.855 170.199V145.072H106.075V170.199C106.075 172.128 105.11 173.093 103.181 173.093H102.14C100.21 173.093 99.2456 172.128 99.2456 170.199V94.9259C99.2456 92.9964 100.21 92.0316 102.14 92.0316H103.181C105.11 92.0316 106.075 92.9964 106.075 94.9259V138.698H160.849V94.9259C160.849 92.9964 161.814 92.0316 163.744 92.0316H164.784C166.714 92.0316 167.679 92.9964 167.679 94.9259V170.199C167.679 172.128 166.714 173.093 164.784 173.093H163.749V173.093Z" fill="url(#paint15_linear_1710_130)"/>
<path d="M152.188 246.685C152.188 246.478 152.142 246.287 152.05 246.111C151.963 245.93 151.781 245.767 151.505 245.622C151.234 245.472 150.825 245.343 150.277 245.235C149.817 245.136 149.4 245.02 149.026 244.886C148.658 244.751 148.343 244.588 148.082 244.397C147.826 244.206 147.629 243.981 147.491 243.723C147.353 243.464 147.284 243.162 147.284 242.815C147.284 242.485 147.356 242.172 147.499 241.877C147.647 241.583 147.854 241.321 148.121 241.094C148.392 240.867 148.717 240.688 149.095 240.559C149.474 240.43 149.896 240.365 150.362 240.365C151.027 240.365 151.595 240.484 152.065 240.722C152.536 240.96 152.897 241.278 153.147 241.676C153.398 242.068 153.524 242.505 153.524 242.986H152.104C152.104 242.753 152.035 242.528 151.896 242.311C151.763 242.089 151.566 241.906 151.306 241.761C151.05 241.616 150.735 241.544 150.362 241.544C149.968 241.544 149.648 241.606 149.402 241.73C149.162 241.849 148.985 242.001 148.873 242.187C148.765 242.373 148.711 242.57 148.711 242.777C148.711 242.932 148.737 243.071 148.788 243.195C148.845 243.314 148.942 243.425 149.08 243.529C149.218 243.627 149.412 243.72 149.663 243.808C149.914 243.896 150.234 243.984 150.622 244.072C151.303 244.227 151.863 244.413 152.303 244.63C152.743 244.847 153.071 245.113 153.286 245.428C153.501 245.744 153.608 246.126 153.608 246.576C153.608 246.943 153.531 247.279 153.378 247.584C153.229 247.889 153.012 248.153 152.725 248.375C152.444 248.592 152.106 248.763 151.712 248.887C151.323 249.006 150.886 249.065 150.4 249.065C149.668 249.065 149.049 248.933 148.543 248.67C148.036 248.406 147.652 248.065 147.391 247.646C147.13 247.227 147 246.785 147 246.32H148.428C148.448 246.713 148.561 247.026 148.765 247.258C148.97 247.486 149.221 247.649 149.517 247.747C149.814 247.84 150.108 247.886 150.4 247.886C150.789 247.886 151.114 247.835 151.375 247.731C151.641 247.628 151.843 247.486 151.981 247.305C152.119 247.124 152.188 246.917 152.188 246.685Z" fill="#15BCBC"/>
<path d="M156.893 237V248.91H155.473V237H156.893ZM156.555 244.397L155.964 244.374C155.969 243.8 156.054 243.27 156.217 242.784C156.381 242.293 156.611 241.867 156.908 241.505C157.205 241.143 157.558 240.864 157.967 240.668C158.382 240.466 158.84 240.365 159.341 240.365C159.75 240.365 160.119 240.422 160.446 240.536C160.774 240.644 161.052 240.82 161.283 241.063C161.518 241.306 161.697 241.621 161.82 242.009C161.943 242.392 162.004 242.859 162.004 243.412V248.91H160.577V243.397C160.577 242.958 160.513 242.606 160.385 242.342C160.257 242.074 160.07 241.88 159.825 241.761C159.579 241.637 159.277 241.575 158.919 241.575C158.566 241.575 158.244 241.65 157.952 241.8C157.665 241.95 157.417 242.156 157.207 242.42C157.003 242.684 156.842 242.986 156.724 243.327C156.611 243.663 156.555 244.02 156.555 244.397Z" fill="#15BCBC"/>
<path d="M163.754 244.808V244.63C163.754 244.025 163.841 243.464 164.015 242.947C164.189 242.425 164.44 241.973 164.767 241.59C165.095 241.203 165.491 240.903 165.957 240.691C166.422 240.474 166.944 240.365 167.522 240.365C168.106 240.365 168.63 240.474 169.096 240.691C169.566 240.903 169.965 241.203 170.293 241.59C170.625 241.973 170.879 242.425 171.053 242.947C171.227 243.464 171.314 244.025 171.314 244.63V244.808C171.314 245.413 171.227 245.974 171.053 246.491C170.879 247.008 170.625 247.46 170.293 247.848C169.965 248.23 169.569 248.53 169.103 248.747C168.643 248.959 168.121 249.065 167.538 249.065C166.954 249.065 166.43 248.959 165.964 248.747C165.499 248.53 165.1 248.23 164.767 247.848C164.44 247.46 164.189 247.008 164.015 246.491C163.841 245.974 163.754 245.413 163.754 244.808ZM165.174 244.63V244.808C165.174 245.227 165.222 245.622 165.32 245.994C165.417 246.361 165.563 246.687 165.757 246.971C165.957 247.256 166.205 247.481 166.502 247.646C166.798 247.806 167.144 247.886 167.538 247.886C167.927 247.886 168.267 247.806 168.558 247.646C168.855 247.481 169.101 247.256 169.295 246.971C169.49 246.687 169.635 246.361 169.733 245.994C169.835 245.622 169.886 245.227 169.886 244.808V244.63C169.886 244.216 169.835 243.826 169.733 243.459C169.635 243.087 169.487 242.759 169.288 242.474C169.093 242.185 168.847 241.957 168.551 241.792C168.259 241.626 167.916 241.544 167.522 241.544C167.133 241.544 166.791 241.626 166.494 241.792C166.202 241.957 165.957 242.185 165.757 242.474C165.563 242.759 165.417 243.087 165.32 243.459C165.222 243.826 165.174 244.216 165.174 244.63Z" fill="#15BCBC"/>
<path d="M174.514 242.133V252.136H173.087V240.52H174.391L174.514 242.133ZM180.109 244.645V244.808C180.109 245.418 180.037 245.984 179.894 246.506C179.751 247.023 179.541 247.473 179.265 247.855C178.994 248.238 178.658 248.535 178.259 248.747C177.86 248.959 177.402 249.065 176.886 249.065C176.359 249.065 175.893 248.977 175.489 248.801C175.085 248.626 174.742 248.37 174.46 248.034C174.179 247.698 173.954 247.295 173.785 246.824C173.621 246.354 173.509 245.824 173.447 245.235V244.366C173.509 243.746 173.624 243.19 173.793 242.699C173.961 242.208 174.184 241.789 174.46 241.443C174.742 241.091 175.082 240.825 175.481 240.644C175.88 240.458 176.341 240.365 176.862 240.365C177.384 240.365 177.847 240.469 178.252 240.675C178.656 240.877 178.996 241.166 179.272 241.544C179.549 241.921 179.756 242.373 179.894 242.901C180.037 243.423 180.109 244.004 180.109 244.645ZM178.681 244.808V244.645C178.681 244.227 178.638 243.834 178.551 243.467C178.464 243.095 178.328 242.769 178.144 242.49C177.965 242.205 177.735 241.983 177.453 241.823C177.172 241.657 176.837 241.575 176.448 241.575C176.09 241.575 175.778 241.637 175.512 241.761C175.251 241.885 175.028 242.053 174.844 242.265C174.66 242.472 174.509 242.709 174.391 242.978C174.279 243.242 174.194 243.516 174.138 243.8V245.808C174.24 246.17 174.384 246.511 174.568 246.832C174.752 247.147 174.998 247.403 175.305 247.6C175.612 247.791 175.998 247.886 176.463 247.886C176.847 247.886 177.177 247.806 177.453 247.646C177.735 247.481 177.965 247.256 178.144 246.971C178.328 246.687 178.464 246.361 178.551 245.994C178.638 245.622 178.681 245.227 178.681 244.808Z" fill="#15BCBC"/>
<defs>
<linearGradient id="paint0_linear_1710_130" x1="263.575" y1="16.4261" x2="135.39" y2="215.824" gradientUnits="userSpaceOnUse">
<stop stop-color="#3EBEB1"/>
<stop offset="0.209" stop-color="#3FBBB1"/>
<stop offset="0.3803" stop-color="#3CB4B2"/>
<stop offset="0.5383" stop-color="#35ABB5"/>
<stop offset="0.6882" stop-color="#2C9DB7"/>
<stop offset="0.8325" stop-color="#228CB9"/>
<stop offset="0.9707" stop-color="#1877B9"/>
<stop offset="1" stop-color="#1372BA"/>
</linearGradient>
<linearGradient id="paint1_linear_1710_130" x1="244.072" y1="-2.63064" x2="115.887" y2="196.767" gradientUnits="userSpaceOnUse">
<stop stop-color="#3EBEB1"/>
<stop offset="0.209" stop-color="#3FBBB1"/>
<stop offset="0.3803" stop-color="#3CB4B2"/>
<stop offset="0.5383" stop-color="#35ABB5"/>
<stop offset="0.6882" stop-color="#2C9DB7"/>
<stop offset="0.8325" stop-color="#228CB9"/>
<stop offset="0.9707" stop-color="#1877B9"/>
<stop offset="1" stop-color="#1372BA"/>
</linearGradient>
<linearGradient id="paint2_linear_1710_130" x1="196.824" y1="-27.367" x2="68.6393" y2="172.031" gradientUnits="userSpaceOnUse">
<stop stop-color="#3EBEB1"/>
<stop offset="0.209" stop-color="#3FBBB1"/>
<stop offset="0.3803" stop-color="#3CB4B2"/>
<stop offset="0.5383" stop-color="#35ABB5"/>
<stop offset="0.6882" stop-color="#2C9DB7"/>
<stop offset="0.8325" stop-color="#228CB9"/>
<stop offset="0.9707" stop-color="#1877B9"/>
<stop offset="1" stop-color="#1372BA"/>
</linearGradient>
<linearGradient id="paint3_linear_1710_130" x1="193.717" y1="-28.4825" x2="65.5324" y2="170.916" gradientUnits="userSpaceOnUse">
<stop stop-color="#3EBEB1"/>
<stop offset="0.209" stop-color="#3FBBB1"/>
<stop offset="0.3803" stop-color="#3CB4B2"/>
<stop offset="0.5383" stop-color="#35ABB5"/>
<stop offset="0.6882" stop-color="#2C9DB7"/>
<stop offset="0.8325" stop-color="#228CB9"/>
<stop offset="0.9707" stop-color="#1877B9"/>
<stop offset="1" stop-color="#1372BA"/>
</linearGradient>
<linearGradient id="paint4_linear_1710_130" x1="219.124" y1="-12.1493" x2="90.9396" y2="187.249" gradientUnits="userSpaceOnUse">
<stop stop-color="#3EBEB1"/>
<stop offset="0.209" stop-color="#3FBBB1"/>
<stop offset="0.3803" stop-color="#3CB4B2"/>
<stop offset="0.5383" stop-color="#35ABB5"/>
<stop offset="0.6882" stop-color="#2C9DB7"/>
<stop offset="0.8325" stop-color="#228CB9"/>
<stop offset="0.9707" stop-color="#1877B9"/>
<stop offset="1" stop-color="#1372BA"/>
</linearGradient>
<linearGradient id="paint5_linear_1710_130" x1="248.233" y1="6.56361" x2="120.049" y2="205.962" gradientUnits="userSpaceOnUse">
<stop stop-color="#3EBEB1"/>
<stop offset="0.209" stop-color="#3FBBB1"/>
<stop offset="0.3803" stop-color="#3CB4B2"/>
<stop offset="0.5383" stop-color="#35ABB5"/>
<stop offset="0.6882" stop-color="#2C9DB7"/>
<stop offset="0.8325" stop-color="#228CB9"/>
<stop offset="0.9707" stop-color="#1877B9"/>
<stop offset="1" stop-color="#1372BA"/>
</linearGradient>
<linearGradient id="paint6_linear_1710_130" x1="260.812" y1="14.65" x2="132.627" y2="214.048" gradientUnits="userSpaceOnUse">
<stop stop-color="#3EBEB1"/>
<stop offset="0.209" stop-color="#3FBBB1"/>
<stop offset="0.3803" stop-color="#3CB4B2"/>
<stop offset="0.5383" stop-color="#35ABB5"/>
<stop offset="0.6882" stop-color="#2C9DB7"/>
<stop offset="0.8325" stop-color="#228CB9"/>
<stop offset="0.9707" stop-color="#1877B9"/>
<stop offset="1" stop-color="#1372BA"/>
</linearGradient>
<linearGradient id="paint7_linear_1710_130" x1="242.409" y1="2.81969" x2="114.225" y2="202.218" gradientUnits="userSpaceOnUse">
<stop stop-color="#3EBEB1"/>
<stop offset="0.209" stop-color="#3FBBB1"/>
<stop offset="0.3803" stop-color="#3CB4B2"/>
<stop offset="0.5383" stop-color="#35ABB5"/>
<stop offset="0.6882" stop-color="#2C9DB7"/>
<stop offset="0.8325" stop-color="#228CB9"/>
<stop offset="0.9707" stop-color="#1877B9"/>
<stop offset="1" stop-color="#1372BA"/>
</linearGradient>
<linearGradient id="paint8_linear_1710_130" x1="221.319" y1="-10.7385" x2="93.134" y2="188.66" gradientUnits="userSpaceOnUse">
<stop stop-color="#3EBEB1"/>
<stop offset="0.209" stop-color="#3FBBB1"/>
<stop offset="0.3803" stop-color="#3CB4B2"/>
<stop offset="0.5383" stop-color="#35ABB5"/>
<stop offset="0.6882" stop-color="#2C9DB7"/>
<stop offset="0.8325" stop-color="#228CB9"/>
<stop offset="0.9707" stop-color="#1877B9"/>
<stop offset="1" stop-color="#1372BA"/>
</linearGradient>
<linearGradient id="paint9_linear_1710_130" x1="204.807" y1="-21.3531" x2="76.6226" y2="178.045" gradientUnits="userSpaceOnUse">
<stop stop-color="#3EBEB1"/>
<stop offset="0.209" stop-color="#3FBBB1"/>
<stop offset="0.3803" stop-color="#3CB4B2"/>
<stop offset="0.5383" stop-color="#35ABB5"/>
<stop offset="0.6882" stop-color="#2C9DB7"/>
<stop offset="0.8325" stop-color="#228CB9"/>
<stop offset="0.9707" stop-color="#1877B9"/>
<stop offset="1" stop-color="#1372BA"/>
</linearGradient>
<linearGradient id="paint10_linear_1710_130" x1="317.487" y1="-168.009" x2="-253.152" y2="719.652" gradientUnits="userSpaceOnUse">
<stop stop-color="#3EBEB1"/>
<stop offset="0.209" stop-color="#3FBBB1"/>
<stop offset="0.3803" stop-color="#3CB4B2"/>
<stop offset="0.5383" stop-color="#35ABB5"/>
<stop offset="0.6882" stop-color="#2C9DB7"/>
<stop offset="0.8325" stop-color="#228CB9"/>
<stop offset="0.9707" stop-color="#1877B9"/>
<stop offset="1" stop-color="#1372BA"/>
</linearGradient>
<linearGradient id="paint11_linear_1710_130" x1="217.48" y1="-88.0447" x2="-153.693" y2="489.336" gradientUnits="userSpaceOnUse">
<stop stop-color="#3EBEB1"/>
<stop offset="0.209" stop-color="#3FBBB1"/>
<stop offset="0.3803" stop-color="#3CB4B2"/>
<stop offset="0.5383" stop-color="#35ABB5"/>
<stop offset="0.6882" stop-color="#2C9DB7"/>
<stop offset="0.8325" stop-color="#228CB9"/>
<stop offset="0.9707" stop-color="#1877B9"/>
<stop offset="1" stop-color="#1372BA"/>
</linearGradient>
<linearGradient id="paint12_linear_1710_130" x1="298.646" y1="-57.7239" x2="-94.348" y2="553.6" gradientUnits="userSpaceOnUse">
<stop stop-color="#3EBEB1"/>
<stop offset="0.209" stop-color="#3FBBB1"/>
<stop offset="0.3803" stop-color="#3CB4B2"/>
<stop offset="0.5383" stop-color="#35ABB5"/>
<stop offset="0.6882" stop-color="#2C9DB7"/>
<stop offset="0.8325" stop-color="#228CB9"/>
<stop offset="0.9707" stop-color="#1877B9"/>
<stop offset="1" stop-color="#1372BA"/>
</linearGradient>
<linearGradient id="paint13_linear_1710_130" x1="215.881" y1="14.1744" x2="98.3788" y2="179.746" gradientUnits="userSpaceOnUse">
<stop stop-color="#3EBEB1"/>
<stop offset="0.209" stop-color="#3FBBB1"/>
<stop offset="0.3803" stop-color="#3CB4B2"/>
<stop offset="0.5383" stop-color="#35ABB5"/>
<stop offset="0.6882" stop-color="#2C9DB7"/>
<stop offset="0.8325" stop-color="#228CB9"/>
<stop offset="0.9707" stop-color="#1877B9"/>
<stop offset="1" stop-color="#1372BA"/>
</linearGradient>
<linearGradient id="paint14_linear_1710_130" x1="212.673" y1="28.1151" x2="90.6089" y2="184.086" gradientUnits="userSpaceOnUse">
<stop stop-color="#3EBEB1"/>
<stop offset="0.209" stop-color="#3FBBB1"/>
<stop offset="0.3803" stop-color="#3CB4B2"/>
<stop offset="0.5383" stop-color="#35ABB5"/>
<stop offset="0.6882" stop-color="#2C9DB7"/>
<stop offset="0.8325" stop-color="#228CB9"/>
<stop offset="0.9707" stop-color="#1877B9"/>
<stop offset="1" stop-color="#1372BA"/>
</linearGradient>
<linearGradient id="paint15_linear_1710_130" x1="204.894" y1="41.2914" x2="98.0734" y2="177.784" gradientUnits="userSpaceOnUse">
<stop stop-color="#3EBEB1"/>
<stop offset="0.209" stop-color="#3FBBB1"/>
<stop offset="0.3803" stop-color="#3CB4B2"/>
<stop offset="0.5383" stop-color="#35ABB5"/>
<stop offset="0.6882" stop-color="#2C9DB7"/>
<stop offset="0.8325" stop-color="#228CB9"/>
<stop offset="0.9707" stop-color="#1877B9"/>
<stop offset="1" stop-color="#1372BA"/>
</linearGradient>
</defs>
</svg>
